<svg version="1.1" xmlns="http://www.w3.org/2000/svg" viewBox="0 0 559.3109914226043 298.87690045332664" width="1118.6219828452085" height="597.7538009066533"><!-- svg-source:excalidraw --><metadata></metadata><defs><style class="style-fonts">
      </style></defs><rect x="0" y="0" width="559.3109914226043" height="298.87690045332664" fill="#ffffff"></rect><g stroke-linecap="round" transform="translate(247.52051250509754 114.7697427494058) rotate(0 58.50861283062079 58.50861283062079)"><path d="M11.32 27.64 C15.46 20.03, 22.39 12.95, 29.66 8.27 C36.92 3.59, 45.65 0.26, 54.89 -0.45 C64.14 -1.15, 76.91 0.3, 85.11 4.06 C93.32 7.82, 98.96 14.47, 104.13 22.11 C109.3 29.75, 114.49 40.88, 116.15 49.9 C117.8 58.91, 117.21 67.59, 114.03 76.22 C110.86 84.86, 103.75 95.07, 97.11 101.7 C90.46 108.33, 82.37 113.47, 74.17 116 C65.97 118.54, 56.81 119.1, 47.92 116.92 C39.02 114.73, 28.33 108.56, 20.81 102.89 C13.3 97.21, 6.08 91.43, 2.84 82.86 C-0.4 74.28, -6.28 65.32, 1.36 51.46 C8.99 37.6, 33.48 6.19, 48.67 -0.3 C63.86 -6.79, 92.59 11.69, 92.49 12.53 M45.27 -0.2 C53.76 -3.62, 64.84 -2.22, 72.87 -0.27 C80.9 1.69, 86.41 5.33, 93.46 11.54 C100.5 17.75, 111.15 28.03, 115.14 36.99 C119.14 45.95, 118.98 56.78, 117.43 65.3 C115.87 73.82, 111.25 80.37, 105.8 88.1 C100.34 95.83, 91.87 106.66, 84.69 111.66 C77.52 116.65, 71.79 117.83, 62.75 118.05 C53.71 118.27, 38.83 117.33, 30.44 112.97 C22.04 108.62, 17.01 99.3, 12.38 91.91 C7.74 84.52, 3.82 77.28, 2.63 68.63 C1.45 59.98, 2.63 49.2, 5.28 40.01 C7.93 30.82, 12.64 19.93, 18.54 13.49 C24.44 7.05, 36.13 3.2, 40.67 1.37 C45.21 -0.47, 45.63 1.86, 45.76 2.49" stroke="#be4bdb" stroke-width="4" fill="none"></path></g><g stroke-linecap="round"><g transform="translate(272.4678774416056 287.12656896768266) rotate(0 -105.39422571938482 -95.38798033073545)"><path d="M-1.72 0.98 C-33.3 -21.86, -71.77 -41.62, -136.73 -76.64 M1.58 -0.16 C-34.8 -20.86, -71.47 -40.68, -134.26 -75.02 M-137.64 -74.5 C-161.32 -116.12, -186.89 -154.9, -212.37 -191.76 M-135.14 -76.33 C-154.91 -105.78, -175.72 -135.43, -210.21 -188.15" stroke="#be4bdb" stroke-width="4" fill="none"></path></g></g><mask></mask><g stroke-linecap="round"><g transform="translate(336.5850649416056 288.46641271768266) rotate(0 105.60387818412732 -91.00131414293026)"><path d="M-0.88 -1.95 C31.89 -19.01, 68.26 -36.21, 123.91 -60.87 M-1.52 0.41 C32.81 -19.54, 67.26 -34.72, 128.28 -61.36 M129.06 -62.88 C160.34 -104.17, 192.89 -157.66, 212.73 -182.41 M126.92 -59.62 C157.53 -97.76, 182.41 -137.62, 212.1 -181.16" stroke="#be4bdb" stroke-width="4" fill="none"></path></g></g><mask></mask><g stroke-linecap="round"><g transform="translate(69.2022426618039 127.88612227459731) rotate(0 0.9312144349320874 -58.42212561956288)"><path d="M-3.42 0.52 C-1.14 -40.73, 0.31 -76.77, 4.32 -115.93 M0.07 1.04 C3.37 -27.12, 3.73 -51.11, 5.29 -117.89" stroke="#1971c2" stroke-width="4" fill="none"></path></g></g><mask></mask><g stroke-linecap="round"><g stroke-opacity="0.6" fill-opacity="0.6" transform="translate(146.03619961480598 160.12235071688713) rotate(0 14.282560260628657 17.133584542154466)"><path d="M-0.06 0.14 C0.98 3.6, 2.41 14.8, 7.44 20.43 C12.47 26.06, 26.51 31.48, 30.12 33.92 M-1.55 -0.83 C-0.8 2.81, 1.19 15.64, 6.34 21.62 C11.5 27.61, 25.64 33.2, 29.38 35.1" stroke="#6741d9" stroke-width="2" fill="none"></path></g></g><mask></mask><g stroke-linecap="round"><g stroke-opacity="0.6" fill-opacity="0.6" transform="translate(161.82421645003507 166.16124822266772) rotate(0 12.373484698746324 10.314726083454104)"><path d="M-0.27 -0.66 C1.07 1.26, 4.17 8.02, 7.98 11.68 C11.8 15.34, 19.96 19.8, 22.63 21.29 M1.78 1.61 C2.98 3.7, 3.2 10.11, 7.07 13.07 C10.94 16.04, 22.12 17.94, 25.02 19.41" stroke="#6741d9" stroke-width="2" fill="none"></path></g></g><mask></mask><g stroke-linecap="round"><g stroke-opacity="0.6" fill-opacity="0.6" transform="translate(4.542587430680101 28.5807313476991) rotate(53.32104680740126 10.48061794297837 9.520783049410966)"><path d="M1 0.24 C2.17 2.39, 3.76 10.15, 7.08 13.2 C10.4 16.26, 18.69 17.58, 20.9 18.56 M0.06 -0.69 C1.61 1.55, 6.08 10.8, 9.39 14.2 C12.69 17.6, 18.13 18.71, 19.9 19.73" stroke="#6741d9" stroke-width="2" fill="none"></path></g></g><mask></mask><g stroke-linecap="round"><g stroke-opacity="0.6" fill-opacity="0.6" transform="translate(12.281162429804397 26.576781056424124) rotate(53.32104680740126 16.869134562590347 12.886365253642282)"><path d="M-0.77 -1.03 C1.38 1.86, 8.42 13.2, 13.91 17.6 C19.39 22, 29 24.19, 32.16 25.37 M1.02 1.04 C2.89 4.09, 7.14 14.7, 12.72 18.99 C18.31 23.29, 31.14 25.72, 34.51 26.8" stroke="#6741d9" stroke-width="2" fill="none"></path></g></g><mask></mask><g stroke-linecap="round"><g stroke-opacity="0.6" fill-opacity="0.6" transform="translate(487.20469136267974 103.40363516862914) rotate(55.58152805880198 11.740375371443122 10.229343519125479)"><path d="M0.54 0.24 C2.22 1.99, 5.16 7.67, 9.09 10.97 C13.02 14.27, 21.88 18.58, 24.12 20.03 M-0.64 -0.69 C1.07 1.15, 4.71 8.34, 8.75 11.98 C12.8 15.62, 21.38 19.75, 23.63 21.15" stroke="#6741d9" stroke-width="2" fill="none"></path></g></g><mask></mask><g stroke-linecap="round"><g stroke-opacity="0.6" fill-opacity="0.6" transform="translate(475.21360425794154 99.77269382192699) rotate(55.58152805880198 15.18462996329771 12.013930210027894)"><path d="M1.17 -0.99 C2.77 1.33, 5.76 10, 10.18 14.18 C14.6 18.36, 24.71 22.52, 27.7 24.11 M0.32 1.1 C1.77 3.57, 4.56 11.53, 9.51 15.52 C14.47 19.5, 26.96 23.57, 30.05 25.02" stroke="#6741d9" stroke-width="2" fill="none"></path></g></g><mask></mask><g stroke-linecap="round"><g stroke-opacity="0.6" fill-opacity="0.6" transform="translate(459.3810098861099 234.65156653414908) rotate(285.37899181734866 15.509708631851652 13.158243911727254)"><path d="M-0.28 0.56 C1.46 2.83, 5.85 10.33, 10.73 14.65 C15.61 18.98, 25.61 24.65, 28.99 26.51 M1.77 -0.2 C3.39 2.75, 5.19 11.77, 10.11 15.87 C15.03 19.97, 27.7 22.59, 31.3 24.41" stroke="#6741d9" stroke-width="2" fill="none"></path></g></g><mask></mask><g stroke-linecap="round"><g stroke-opacity="0.6" fill-opacity="0.6" transform="translate(462.37280528676337 241.84925331199122) rotate(285.37899181734866 18.12352882031132 14.960245296340133)"><path d="M0.85 -1.13 C3.11 1.83, 7.27 13.15, 13.2 18.27 C19.13 23.39, 32.75 27.61, 36.42 29.58 M-0.17 0.9 C2.07 3.5, 6.82 11.71, 12.83 16.73 C18.84 21.75, 32.17 29.16, 35.87 31.05" stroke="#6741d9" stroke-width="2" fill="none"></path></g></g><mask></mask></svg>